<mxfile host="app.diagrams.net" modified="2020-03-25T05:32:19.244Z" agent="Mozilla/5.0 (Windows NT 10.0; Win64; x64) AppleWebKit/537.36 (KHTML, like Gecko) Chrome/80.0.3987.149 Safari/537.36" etag="UZMgL7mGBZYoQ-HcPUT6" version="12.9.2" type="github">
  <diagram id="1mysd53Gnd4nTqjyurCx" name="Page-1">
    <mxGraphModel dx="1718" dy="1592" grid="1" gridSize="10" guides="1" tooltips="1" connect="1" arrows="1" fold="1" page="1" pageScale="1" pageWidth="850" pageHeight="1100" math="0" shadow="0">
      <root>
        <mxCell id="0" />
        <mxCell id="1" parent="0" />
        <mxCell id="kd50eOP3ocVIhUrG3reN-30" style="edgeStyle=orthogonalEdgeStyle;rounded=0;orthogonalLoop=1;jettySize=auto;html=1;exitX=0.5;exitY=0;exitDx=0;exitDy=0;entryX=0.5;entryY=1;entryDx=0;entryDy=0;" parent="1" source="kd50eOP3ocVIhUrG3reN-1" target="kd50eOP3ocVIhUrG3reN-29" edge="1">
          <mxGeometry relative="1" as="geometry" />
        </mxCell>
        <mxCell id="kd50eOP3ocVIhUrG3reN-1" value="Projetos" style="rounded=0;whiteSpace=wrap;html=1;" parent="1" vertex="1">
          <mxGeometry x="410" y="300" width="110" height="50" as="geometry" />
        </mxCell>
        <mxCell id="kd50eOP3ocVIhUrG3reN-24" style="edgeStyle=orthogonalEdgeStyle;rounded=0;orthogonalLoop=1;jettySize=auto;html=1;exitX=0.5;exitY=1;exitDx=0;exitDy=0;entryX=0.5;entryY=0;entryDx=0;entryDy=0;" parent="1" source="kd50eOP3ocVIhUrG3reN-3" target="kd50eOP3ocVIhUrG3reN-23" edge="1">
          <mxGeometry relative="1" as="geometry">
            <mxPoint x="235" y="190" as="targetPoint" />
          </mxGeometry>
        </mxCell>
        <mxCell id="kd50eOP3ocVIhUrG3reN-42" style="edgeStyle=orthogonalEdgeStyle;rounded=0;orthogonalLoop=1;jettySize=auto;html=1;exitX=1;exitY=0.5;exitDx=0;exitDy=0;entryX=0;entryY=0.5;entryDx=0;entryDy=0;" parent="1" source="kd50eOP3ocVIhUrG3reN-3" target="kd50eOP3ocVIhUrG3reN-39" edge="1">
          <mxGeometry relative="1" as="geometry" />
        </mxCell>
        <mxCell id="kd50eOP3ocVIhUrG3reN-3" value="Alunos" style="rounded=0;whiteSpace=wrap;html=1;" parent="1" vertex="1">
          <mxGeometry x="80" y="120" width="110" height="50" as="geometry" />
        </mxCell>
        <mxCell id="kd50eOP3ocVIhUrG3reN-21" style="edgeStyle=orthogonalEdgeStyle;rounded=0;orthogonalLoop=1;jettySize=auto;html=1;exitX=0.5;exitY=1;exitDx=0;exitDy=0;entryX=0.5;entryY=0;entryDx=0;entryDy=0;" parent="1" source="kd50eOP3ocVIhUrG3reN-4" target="kd50eOP3ocVIhUrG3reN-20" edge="1">
          <mxGeometry relative="1" as="geometry">
            <mxPoint x="775" y="180" as="sourcePoint" />
          </mxGeometry>
        </mxCell>
        <mxCell id="kd50eOP3ocVIhUrG3reN-41" style="edgeStyle=orthogonalEdgeStyle;rounded=0;orthogonalLoop=1;jettySize=auto;html=1;exitX=0;exitY=0.5;exitDx=0;exitDy=0;entryX=1;entryY=0.5;entryDx=0;entryDy=0;" parent="1" source="kd50eOP3ocVIhUrG3reN-4" target="kd50eOP3ocVIhUrG3reN-40" edge="1">
          <mxGeometry relative="1" as="geometry" />
        </mxCell>
        <mxCell id="kd50eOP3ocVIhUrG3reN-4" value="Professores" style="rounded=0;whiteSpace=wrap;html=1;" parent="1" vertex="1">
          <mxGeometry x="710" y="120" width="110" height="50" as="geometry" />
        </mxCell>
        <mxCell id="kd50eOP3ocVIhUrG3reN-15" value="" style="group" parent="1" vertex="1" connectable="0">
          <mxGeometry x="410" y="60" width="110" height="50" as="geometry" />
        </mxCell>
        <mxCell id="kd50eOP3ocVIhUrG3reN-16" value="Tarefas" style="rounded=0;whiteSpace=wrap;html=1;" parent="kd50eOP3ocVIhUrG3reN-15" vertex="1">
          <mxGeometry width="110" height="50" as="geometry" />
        </mxCell>
        <mxCell id="kd50eOP3ocVIhUrG3reN-22" style="edgeStyle=orthogonalEdgeStyle;rounded=0;orthogonalLoop=1;jettySize=auto;html=1;exitX=0.5;exitY=1;exitDx=0;exitDy=0;entryX=1;entryY=0.5;entryDx=0;entryDy=0;" parent="1" source="kd50eOP3ocVIhUrG3reN-20" target="kd50eOP3ocVIhUrG3reN-1" edge="1">
          <mxGeometry relative="1" as="geometry" />
        </mxCell>
        <mxCell id="kd50eOP3ocVIhUrG3reN-20" value="Orienta" style="rhombus;whiteSpace=wrap;html=1;" parent="1" vertex="1">
          <mxGeometry x="660" y="290" width="110" height="40" as="geometry" />
        </mxCell>
        <mxCell id="kd50eOP3ocVIhUrG3reN-25" style="edgeStyle=orthogonalEdgeStyle;rounded=0;orthogonalLoop=1;jettySize=auto;html=1;exitX=0.5;exitY=1;exitDx=0;exitDy=0;entryX=0;entryY=0.5;entryDx=0;entryDy=0;" parent="1" source="kd50eOP3ocVIhUrG3reN-23" target="kd50eOP3ocVIhUrG3reN-1" edge="1">
          <mxGeometry relative="1" as="geometry" />
        </mxCell>
        <mxCell id="kd50eOP3ocVIhUrG3reN-23" value="Contem" style="rhombus;whiteSpace=wrap;html=1;" parent="1" vertex="1">
          <mxGeometry x="120" y="290" width="110" height="40" as="geometry" />
        </mxCell>
        <mxCell id="kd50eOP3ocVIhUrG3reN-31" style="edgeStyle=orthogonalEdgeStyle;rounded=0;orthogonalLoop=1;jettySize=auto;html=1;exitX=0.5;exitY=0;exitDx=0;exitDy=0;entryX=0.5;entryY=1;entryDx=0;entryDy=0;" parent="1" source="kd50eOP3ocVIhUrG3reN-29" target="kd50eOP3ocVIhUrG3reN-16" edge="1">
          <mxGeometry relative="1" as="geometry">
            <mxPoint x="465" y="130" as="targetPoint" />
          </mxGeometry>
        </mxCell>
        <mxCell id="kd50eOP3ocVIhUrG3reN-29" value="Possui" style="rhombus;whiteSpace=wrap;html=1;" parent="1" vertex="1">
          <mxGeometry x="410" y="210" width="110" height="40" as="geometry" />
        </mxCell>
        <mxCell id="kd50eOP3ocVIhUrG3reN-37" style="edgeStyle=orthogonalEdgeStyle;rounded=0;orthogonalLoop=1;jettySize=auto;html=1;exitX=0;exitY=0.5;exitDx=0;exitDy=0;entryX=0;entryY=0.25;entryDx=0;entryDy=0;" parent="1" source="kd50eOP3ocVIhUrG3reN-33" target="kd50eOP3ocVIhUrG3reN-16" edge="1">
          <mxGeometry relative="1" as="geometry" />
        </mxCell>
        <mxCell id="kd50eOP3ocVIhUrG3reN-33" value="Contem" style="rhombus;whiteSpace=wrap;html=1;" parent="1" vertex="1">
          <mxGeometry x="300" y="-20" width="110" height="40" as="geometry" />
        </mxCell>
        <mxCell id="kd50eOP3ocVIhUrG3reN-43" style="edgeStyle=orthogonalEdgeStyle;rounded=0;orthogonalLoop=1;jettySize=auto;html=1;exitX=1;exitY=0.5;exitDx=0;exitDy=0;entryX=0;entryY=0.75;entryDx=0;entryDy=0;" parent="1" source="kd50eOP3ocVIhUrG3reN-39" target="kd50eOP3ocVIhUrG3reN-16" edge="1">
          <mxGeometry relative="1" as="geometry">
            <mxPoint x="410" y="120" as="targetPoint" />
          </mxGeometry>
        </mxCell>
        <mxCell id="kd50eOP3ocVIhUrG3reN-39" value="Faz" style="rhombus;whiteSpace=wrap;html=1;" parent="1" vertex="1">
          <mxGeometry x="300" y="180" width="110" height="40" as="geometry" />
        </mxCell>
        <mxCell id="kd50eOP3ocVIhUrG3reN-44" style="edgeStyle=orthogonalEdgeStyle;rounded=0;orthogonalLoop=1;jettySize=auto;html=1;exitX=0;exitY=0.5;exitDx=0;exitDy=0;entryX=1;entryY=0.75;entryDx=0;entryDy=0;" parent="1" source="kd50eOP3ocVIhUrG3reN-40" target="kd50eOP3ocVIhUrG3reN-16" edge="1">
          <mxGeometry relative="1" as="geometry" />
        </mxCell>
        <mxCell id="kd50eOP3ocVIhUrG3reN-40" value="Verifica" style="rhombus;whiteSpace=wrap;html=1;" parent="1" vertex="1">
          <mxGeometry x="520" y="180" width="110" height="40" as="geometry" />
        </mxCell>
        <mxCell id="wgPbf9IUGAWArEAMorVR-1" value="0:N" style="text;html=1;align=center;verticalAlign=middle;resizable=0;points=[];autosize=1;" parent="1" vertex="1">
          <mxGeometry x="535" y="300" width="30" height="20" as="geometry" />
        </mxCell>
        <mxCell id="wgPbf9IUGAWArEAMorVR-2" value="1:1" style="text;html=1;align=center;verticalAlign=middle;resizable=0;points=[];autosize=1;" parent="1" vertex="1">
          <mxGeometry x="770" y="180" width="30" height="20" as="geometry" />
        </mxCell>
        <mxCell id="wgPbf9IUGAWArEAMorVR-6" value="1:N" style="text;html=1;align=center;verticalAlign=middle;resizable=0;points=[];autosize=1;" parent="1" vertex="1">
          <mxGeometry x="470" y="120" width="30" height="20" as="geometry" />
        </mxCell>
        <mxCell id="wgPbf9IUGAWArEAMorVR-8" value="1:1" style="text;html=1;align=center;verticalAlign=middle;resizable=0;points=[];autosize=1;" parent="1" vertex="1">
          <mxGeometry x="470" y="270" width="30" height="20" as="geometry" />
        </mxCell>
        <mxCell id="wgPbf9IUGAWArEAMorVR-9" value="0:N" style="text;html=1;align=center;verticalAlign=middle;resizable=0;points=[];autosize=1;" parent="1" vertex="1">
          <mxGeometry x="530" y="75" width="30" height="20" as="geometry" />
        </mxCell>
        <mxCell id="wgPbf9IUGAWArEAMorVR-10" value="0:1" style="text;html=1;align=center;verticalAlign=middle;resizable=0;points=[];autosize=1;" parent="1" vertex="1">
          <mxGeometry x="670" y="120" width="30" height="20" as="geometry" />
        </mxCell>
        <mxCell id="wgPbf9IUGAWArEAMorVR-15" value="1:N" style="text;html=1;align=center;verticalAlign=middle;resizable=0;points=[];autosize=1;" parent="1" vertex="1">
          <mxGeometry x="140" y="180" width="30" height="20" as="geometry" />
        </mxCell>
        <mxCell id="wgPbf9IUGAWArEAMorVR-16" value="1:1?" style="text;html=1;align=center;verticalAlign=middle;resizable=0;points=[];autosize=1;" parent="1" vertex="1">
          <mxGeometry x="360" y="298" width="40" height="20" as="geometry" />
        </mxCell>
        <mxCell id="wgPbf9IUGAWArEAMorVR-18" value="0:N" style="text;html=1;align=center;verticalAlign=middle;resizable=0;points=[];autosize=1;" parent="1" vertex="1">
          <mxGeometry x="350" y="110" width="30" height="20" as="geometry" />
        </mxCell>
        <mxCell id="wgPbf9IUGAWArEAMorVR-19" value="1:N" style="text;html=1;align=center;verticalAlign=middle;resizable=0;points=[];autosize=1;" parent="1" vertex="1">
          <mxGeometry x="200" y="120" width="30" height="20" as="geometry" />
        </mxCell>
        <mxCell id="wgPbf9IUGAWArEAMorVR-21" value="0:N" style="text;html=1;align=center;verticalAlign=middle;resizable=0;points=[];autosize=1;" parent="1" vertex="1">
          <mxGeometry x="365" y="50" width="30" height="20" as="geometry" />
        </mxCell>
        <mxCell id="wgPbf9IUGAWArEAMorVR-25" value="0:1" style="text;html=1;align=center;verticalAlign=middle;resizable=0;points=[];autosize=1;" parent="1" vertex="1">
          <mxGeometry x="440" y="30" width="30" height="20" as="geometry" />
        </mxCell>
        <mxCell id="wgPbf9IUGAWArEAMorVR-26" style="edgeStyle=orthogonalEdgeStyle;rounded=0;orthogonalLoop=1;jettySize=auto;html=1;exitX=0.25;exitY=0;exitDx=0;exitDy=0;entryX=1;entryY=0.5;entryDx=0;entryDy=0;" parent="1" source="kd50eOP3ocVIhUrG3reN-16" target="kd50eOP3ocVIhUrG3reN-33" edge="1">
          <mxGeometry relative="1" as="geometry" />
        </mxCell>
        <mxCell id="DxdNHosKMYR6QQF7nd6B-1" value="&lt;u&gt;RA&lt;/u&gt;" style="ellipse;whiteSpace=wrap;html=1;" vertex="1" parent="1">
          <mxGeometry x="40" y="25" width="80" height="30" as="geometry" />
        </mxCell>
        <mxCell id="DxdNHosKMYR6QQF7nd6B-2" value="" style="group" vertex="1" connectable="0" parent="1">
          <mxGeometry x="110" y="450" width="170" height="50" as="geometry" />
        </mxCell>
        <mxCell id="DxdNHosKMYR6QQF7nd6B-3" value="" style="rounded=0;whiteSpace=wrap;html=1;" vertex="1" parent="DxdNHosKMYR6QQF7nd6B-2">
          <mxGeometry width="170" height="50" as="geometry" />
        </mxCell>
        <mxCell id="DxdNHosKMYR6QQF7nd6B-4" value="&lt;div style=&quot;text-align: justify&quot;&gt;Orgão_mantenedor&lt;/div&gt;" style="rounded=0;whiteSpace=wrap;html=1;" vertex="1" parent="DxdNHosKMYR6QQF7nd6B-2">
          <mxGeometry x="15.454545454545453" y="5" width="139.0909090909091" height="40" as="geometry" />
        </mxCell>
        <mxCell id="DxdNHosKMYR6QQF7nd6B-7" style="edgeStyle=orthogonalEdgeStyle;rounded=0;orthogonalLoop=1;jettySize=auto;html=1;exitX=0.5;exitY=0;exitDx=0;exitDy=0;entryX=0;entryY=1;entryDx=0;entryDy=0;" edge="1" parent="1" source="DxdNHosKMYR6QQF7nd6B-5" target="kd50eOP3ocVIhUrG3reN-1">
          <mxGeometry relative="1" as="geometry">
            <mxPoint x="465" y="370" as="targetPoint" />
          </mxGeometry>
        </mxCell>
        <mxCell id="DxdNHosKMYR6QQF7nd6B-5" value="Financia" style="rhombus;whiteSpace=wrap;html=1;" vertex="1" parent="1">
          <mxGeometry x="320" y="420" width="110" height="40" as="geometry" />
        </mxCell>
        <mxCell id="DxdNHosKMYR6QQF7nd6B-6" style="edgeStyle=orthogonalEdgeStyle;rounded=0;orthogonalLoop=1;jettySize=auto;html=1;exitX=1;exitY=0.5;exitDx=0;exitDy=0;entryX=0.5;entryY=1;entryDx=0;entryDy=0;" edge="1" parent="1" source="DxdNHosKMYR6QQF7nd6B-3" target="DxdNHosKMYR6QQF7nd6B-5">
          <mxGeometry relative="1" as="geometry" />
        </mxCell>
        <mxCell id="DxdNHosKMYR6QQF7nd6B-8" value="" style="ellipse;whiteSpace=wrap;html=1;" vertex="1" parent="1">
          <mxGeometry x="240" y="190" width="80" height="30" as="geometry" />
        </mxCell>
        <mxCell id="DxdNHosKMYR6QQF7nd6B-9" value="nome" style="ellipse;whiteSpace=wrap;html=1;" vertex="1" parent="1">
          <mxGeometry x="-20" y="60" width="80" height="30" as="geometry" />
        </mxCell>
        <mxCell id="DxdNHosKMYR6QQF7nd6B-10" value="dtNascimento" style="ellipse;whiteSpace=wrap;html=1;" vertex="1" parent="1">
          <mxGeometry x="-90" y="105" width="110" height="30" as="geometry" />
        </mxCell>
      </root>
    </mxGraphModel>
  </diagram>
</mxfile>
